<svg width="1024" height="1024" viewBox="0 0 1024 1024" fill="none" xmlns="http://www.w3.org/2000/svg">
<rect x="100" y="96" width="824" height="824" rx="184" fill="white"/>
<g filter="url(#filter0_d_1_2)">
<path d="M681.001 407.987L799.505 354.66C806.5 351.511 811.001 344.554 811.001 336.88C811.001 329.205 806.499 322.248 799.504 319.1L681.001 265.774V336.88V407.987Z" fill="#34A853"/>
<path d="M669.504 260.601C662.014 257.218 652.792 259.501 647.713 264.593L544.523 367.782L572.074 395.333L641.999 325.408V395.333V465.258L681.001 504.26V407.987V336.88V265.774L669.504 260.601Z" fill="#34A853"/>
<path d="M669.504 260.601C662.014 257.218 652.792 259.501 647.713 264.593L544.523 367.782L572.074 395.333L641.999 325.408V395.333V465.258L681.001 504.26V407.987V336.88V265.774L669.504 260.601Z" fill="#FBBC04"/>
<path d="M544.499 367.806L480.283 303.59C476.628 299.934 471.67 297.881 466.499 297.881H232.5C224.611 297.879 217.501 302.628 214.487 309.915C211.465 317.202 213.134 325.594 218.715 331.167L408 520.452L447 559.452V559.406L516.925 629.331L544.524 656.93L558.287 643.167L675.287 526.167C678.848 522.615 681.001 516.774 681.001 512.381V504.26L641.999 465.258L572.074 395.333L544.523 367.782L544.499 367.806Z" fill="#EA4335"/>
<path d="M408 520.452V616.771V758.986L419.495 764.159C426.766 767.414 435.548 765.916 441.287 760.167L544.524 656.93L516.925 629.331L447 699.258V559.452L408 520.452Z" fill="#C5221F"/>
<path d="M408 616.771L289.496 670.099C282.501 673.248 278 680.204 278 687.879C278 695.554 282.5 702.51 289.496 705.659L408 758.986V616.771Z" fill="#4285F4"/>
</g>
<defs>
<filter id="filter0_d_1_2" x="181" y="243" width="662.001" height="570.852" filterUnits="userSpaceOnUse" color-interpolation-filters="sRGB">
<feFlood flood-opacity="0" result="BackgroundImageFix"/>
<feColorMatrix in="SourceAlpha" type="matrix" values="0 0 0 0 0 0 0 0 0 0 0 0 0 0 0 0 0 0 127 0" result="hardAlpha"/>
<feOffset dy="16"/>
<feGaussianBlur stdDeviation="16"/>
<feComposite in2="hardAlpha" operator="out"/>
<feColorMatrix type="matrix" values="0 0 0 0 0 0 0 0 0 0 0 0 0 0 0 0 0 0 0.25 0"/>
<feBlend mode="normal" in2="BackgroundImageFix" result="effect1_dropShadow_1_2"/>
<feBlend mode="normal" in="SourceGraphic" in2="effect1_dropShadow_1_2" result="shape"/>
</filter>
</defs>
</svg>
